<?xml version="1.0" standalone="no"?>
<!DOCTYPE svg PUBLIC "-//W3C//DTD SVG 20010904//EN"
 "http://www.w3.org/TR/2001/REC-SVG-20010904/DTD/svg10.dtd">
<svg version="1.0" xmlns="http://www.w3.org/2000/svg"
 width="486.000000pt" height="486.000000pt" viewBox="0 0 486.000000 486.000000"
 preserveAspectRatio="xMidYMid meet">
<metadata>
Created by potrace 1.14, written by Peter Selinger 2001-2017
</metadata>
<g transform="translate(0.000000,486.000000) scale(0.100000,-0.100000)"
fill="#000000" stroke="none">
<path d="M1812 3743 c-43 -21 -79 -69 -90 -118 -8 -39 -10 -41 -157 -116
l-148 -77 -36 15 c-49 21 -113 12 -157 -22 -47 -36 -67 -85 -61 -150 l5 -50
-131 -155 -130 -155 -53 -2 c-86 -3 -142 -44 -163 -119 -19 -69 19 -159 78
-185 19 -9 31 -22 32 -34 0 -11 0 -85 0 -165 l0 -145 -35 -30 c-71 -62 -86
-155 -36 -225 27 -38 89 -69 132 -66 26 2 38 -8 103 -88 136 -168 279 -289
430 -362 76 -38 90 -48 93 -72 5 -44 50 -102 94 -122 61 -27 139 -10 187 41
l19 21 264 -72 c145 -39 264 -74 266 -78 1 -4 12 -25 25 -47 57 -102 208 -106
272 -8 11 17 25 38 30 46 6 8 28 18 50 21 35 5 93 15 175 31 14 3 59 12 100
20 41 8 85 16 97 19 92 19 107 18 136 -13 101 -109 287 -25 275 125 -2 35 1
46 22 63 14 11 140 114 280 228 l255 208 1 327 c0 180 2 329 5 331 2 2 19 14
37 26 133 92 53 304 -109 289 l-48 -5 -98 120 c-54 66 -108 132 -121 148 -20
25 -21 32 -13 72 13 54 0 104 -35 147 -33 38 -50 48 -105 55 -35 5 -53 1 -89
-18 l-45 -24 -140 67 c-77 36 -172 81 -211 99 -68 32 -72 35 -77 73 -10 73
-83 138 -156 138 -48 0 -95 -24 -127 -64 l-29 -36 -317 0 -316 0 -22 34 c-40
65 -139 93 -208 59z m124 -98 c30 -30 27 -80 -7 -107 -46 -38 -119 -4 -119 56
0 70 76 101 126 51z m942 -5 c35 -32 33 -74 -4 -107 -34 -31 -69 -29 -100 4
-28 31 -27 72 3 105 22 24 74 23 101 -2z m-245 -79 c47 -1 50 -27 8 -62 -16
-13 -66 -58 -111 -99 -45 -41 -96 -87 -113 -102 -18 -17 -35 -24 -41 -19 -6 4
-84 63 -173 130 -107 80 -163 129 -163 141 0 17 14 18 278 15 152 -2 294 -4
315 -4z m-857 -85 c50 -46 119 -53 186 -20 14 8 28 10 30 6 2 -4 21 -20 43
-36 22 -16 95 -72 163 -124 l123 -94 -23 -20 c-31 -27 -90 -80 -167 -151 -62
-57 -64 -58 -107 -52 -65 8 -126 -21 -162 -79 -15 -24 -34 -44 -42 -44 -20 1
-314 -13 -367 -17 -49 -3 -43 -19 -68 175 -13 104 -13 116 1 125 81 51 115
119 96 190 -8 29 -8 29 122 97 72 37 135 68 139 68 4 0 19 -11 33 -24z m1269
-26 c28 -12 84 -38 125 -57 41 -20 103 -48 138 -64 62 -28 62 -28 63 -71 0
-24 4 -52 8 -63 6 -15 0 -27 -28 -54 -20 -19 -86 -83 -147 -142 l-111 -108
-46 17 c-39 14 -52 15 -89 4 -24 -7 -49 -14 -55 -15 -7 -1 -110 70 -228 158
l-216 160 58 55 c32 30 91 85 132 122 71 63 76 66 100 54 66 -33 136 -26 188
18 18 16 33 21 43 16 8 -4 38 -18 65 -30z m-1671 -99 c49 -54 12 -138 -56
-126 -18 4 -41 13 -50 22 -24 22 -23 78 2 103 26 26 81 26 104 1z m2212 -48
c20 -21 24 -34 20 -57 -8 -40 -22 -54 -61 -62 -48 -9 -84 19 -85 67 0 75 76
106 126 52z m-2327 -157 c26 -14 28 -20 40 -123 7 -59 15 -126 18 -148 l5 -40
-109 -3 c-59 -2 -131 -5 -160 -7 -51 -4 -80 10 -71 34 3 10 241 300 246 301 2
0 15 -6 31 -14z m1280 -98 c75 -56 141 -107 148 -113 6 -5 44 -32 83 -60 70
-50 70 -50 65 -89 -3 -22 -8 -42 -11 -45 -6 -7 -235 -129 -371 -198 l-91 -47
-116 114 c-113 111 -115 113 -102 139 22 41 25 84 10 127 -8 21 -12 44 -10 51
6 15 238 223 250 223 5 0 70 -46 145 -102z m986 48 c17 0 44 2 61 6 28 6 34 3
67 -40 20 -26 46 -58 59 -72 13 -14 49 -57 81 -97 51 -63 57 -74 47 -93 -6
-11 -14 -42 -17 -68 -3 -26 -8 -51 -13 -55 -4 -4 -92 -54 -196 -111 l-189
-103 -40 31 c-22 17 -82 66 -134 110 l-95 78 0 75 -1 76 145 139 c128 122 148
138 170 132 14 -4 39 -7 55 -8z m-1463 -225 c35 -44 -1 -121 -57 -121 -38 0
-57 11 -70 44 -15 34 -5 71 23 92 24 18 84 9 104 -15z m-1160 -71 c63 -77 -43
-168 -109 -94 -25 28 -29 60 -10 85 32 42 89 46 119 9z m2148 8 c29 -32 27
-81 -6 -107 -49 -39 -108 -17 -120 44 -13 70 77 115 126 63z m1006 -71 c13
-59 -44 -109 -99 -88 -70 27 -60 122 16 142 32 9 75 -20 83 -54z m-2214 33
c47 -65 63 -81 92 -91 23 -8 36 -21 44 -43 55 -162 92 -290 85 -296 -9 -9 -47
-30 -218 -120 -268 -141 -242 -130 -261 -109 -9 10 -32 24 -50 31 -38 13 -41
20 -49 98 -3 30 -8 66 -10 80 -2 14 -7 48 -10 75 -5 52 -14 121 -20 165 -2 14
-7 48 -10 75 -3 28 -8 67 -11 88 l-6 37 49 1 c79 1 267 10 270 12 4 5 102 1
105 -3z m-509 -37 c3 -10 8 -45 12 -78 4 -32 8 -66 10 -75 1 -8 6 -42 9 -75 4
-33 9 -71 11 -85 2 -14 6 -45 9 -70 14 -114 18 -147 22 -171 3 -20 -7 -37 -47
-79 l-52 -53 -51 11 c-28 6 -85 16 -126 23 -93 15 -110 23 -110 53 0 37 -41
89 -87 111 l-42 20 -1 168 c0 142 2 167 15 167 24 0 92 75 100 109 7 34 -3 32
227 39 86 3 97 1 101 -15z m947 -279 c0 -1 -26 -16 -57 -33 -55 -30 -85 -39
-81 -23 1 6 -59 205 -80 262 -3 8 45 -34 106 -94 62 -61 112 -111 112 -112z
m548 -29 l-65 -207 -39 -17 -40 -18 -127 123 -127 123 96 52 c53 28 151 80
218 115 168 87 166 91 84 -171z m386 96 c64 -52 115 -99 113 -104 -1 -5 -30
-24 -62 -41 -33 -18 -91 -49 -130 -70 -38 -21 -99 -54 -135 -74 -36 -19 -71
-39 -77 -45 -9 -6 -23 -5 -42 3 l-29 12 17 61 c52 181 105 335 115 331 6 -2
31 2 56 10 25 8 48 13 52 12 4 0 59 -43 122 -95z m689 57 l47 -23 0 -262 c0
-145 -2 -263 -5 -263 -3 0 -15 9 -27 19 -58 50 -90 77 -248 207 -93 76 -169
142 -170 145 0 3 28 20 63 39 174 93 263 143 272 151 13 12 14 12 68 -13z
m-1376 -364 l101 -99 -1 -56 c0 -43 5 -63 23 -89 l23 -33 -43 -133 c-31 -93
-49 -134 -59 -134 -8 0 -59 14 -112 32 l-97 32 -30 90 c-92 274 -152 469 -147
475 4 3 41 24 83 47 l77 40 40 -37 c22 -20 86 -81 142 -135z m1178 -98 c170
-140 163 -129 80 -121 -38 3 -81 8 -95 10 -14 2 -61 6 -105 10 -44 3 -93 8
-110 10 -16 2 -66 7 -109 10 -44 4 -93 8 -110 10 -17 2 -64 6 -103 10 -40 4
-81 8 -90 10 -10 2 -39 4 -65 4 -40 1 -48 4 -48 19 0 14 33 37 118 82 64 35
137 75 162 88 25 14 76 42 114 63 l70 37 85 -72 c47 -40 140 -116 206 -170z
m-1528 -97 c40 -123 73 -229 73 -236 0 -13 -31 -4 -380 111 -207 67 -225 75
-228 98 -3 21 7 29 70 61 40 20 141 72 223 116 83 44 154 79 160 77 5 -1 42
-103 82 -227z m-1262 137 c18 -18 23 -32 20 -57 -10 -78 -110 -96 -140 -25
-33 77 60 141 120 82z m1922 -48 c47 -44 16 -128 -48 -128 -32 0 -79 38 -79
64 0 72 77 111 127 64z m-1312 -63 c30 -30 32 -64 4 -99 -40 -51 -129 -19
-129 46 0 36 40 78 75 78 14 0 37 -11 50 -25z m-400 -50 c39 -7 134 -24 162
-31 13 -2 29 -17 38 -34 26 -51 62 -81 111 -94 l48 -12 42 -114 42 -115 -30
-28 c-30 -27 -32 -28 -67 -13 -90 36 -210 120 -317 223 -69 66 -174 191 -174
208 0 25 21 32 68 23 26 -4 61 -11 77 -13z m1975 -20 c25 -3 68 -7 95 -9 28
-3 77 -8 110 -11 33 -3 76 -8 95 -10 19 -2 64 -7 100 -10 36 -3 106 -10 155
-15 50 -5 119 -12 155 -16 36 -3 66 -7 68 -9 1 -1 -17 -18 -40 -38 -145 -119
-399 -326 -407 -331 -5 -3 -22 1 -39 10 -17 8 -44 16 -59 18 -43 4 -110 -23
-137 -54 l-24 -29 -248 81 c-137 44 -251 82 -253 83 -5 5 69 238 80 251 5 6
20 9 34 7 33 -7 110 32 136 69 21 29 23 29 78 23 31 -4 76 -8 101 -10z m-1280
-157 c102 -33 249 -81 328 -106 l143 -47 39 -120 c55 -166 54 -164 21 -204
l-29 -33 -174 46 c-95 26 -207 56 -248 67 -41 11 -78 23 -81 27 -3 4 -11 26
-17 49 -15 49 -67 99 -115 108 -32 6 -35 10 -75 123 -23 64 -42 121 -42 126 0
15 34 36 50 30 8 -3 98 -32 200 -66z m604 -195 c4 -5 11 -8 14 -8 30 -2 112
-31 112 -39 0 -6 -12 -46 -26 -88 -37 -111 -52 -107 -92 25 -35 111 -36 117
-24 117 5 0 12 -3 16 -7z m312 -102 c49 -16 154 -50 234 -76 79 -25 146 -48
148 -49 1 -2 -106 -25 -240 -51 -173 -34 -243 -45 -246 -36 -2 6 -15 25 -28
40 l-24 29 20 61 c27 81 39 111 43 111 3 0 44 -13 93 -29z m-1021 -44 c21 -51
-3 -91 -61 -101 -58 -10 -102 60 -70 110 35 52 107 47 131 -9z m1641 -17 c6 0
18 -14 27 -31 32 -67 -32 -136 -95 -103 -40 21 -52 48 -38 88 12 36 44 58 75
51 11 -3 25 -5 31 -5z m-825 -159 c52 -42 16 -130 -52 -131 -65 0 -96 83 -49
130 25 25 71 26 101 1z"/>
</g>
</svg>
